HIERARCHY
ROOT Hips
{
 OFFSET 0.000000 0.000000 0.000000
 CHANNELS 6 Xposition Yposition Zposition Yrotation Xrotation Zrotation
 JOINT Chest
 {
  OFFSET 0.000000 9.585900 0.002600
  CHANNELS 3 Yrotation Xrotation Zrotation
  JOINT Chest2
  {
   OFFSET 0.000000 9.601200 -0.005300
   CHANNELS 3 Yrotation Xrotation Zrotation
   JOINT Chest3
   {
    OFFSET 0.000000 9.561800 0.000000
    CHANNELS 3 Yrotation Xrotation Zrotation
    JOINT Chest4
    {
     OFFSET 0.000000 9.552100 0.000000
     CHANNELS 3 Yrotation Xrotation Zrotation
     JOINT Neck
     {
      OFFSET 0.000000 14.453000 0.000000
      CHANNELS 3 Yrotation Xrotation Zrotation
      JOINT Head
      {
       OFFSET 0.000000 8.936500 -0.011300
       CHANNELS 3 Yrotation Xrotation Zrotation
       End Site
       {
        OFFSET 0.000000 17.073600 -0.006000
       }
      }
     }
     JOINT RightCollar
     {
      OFFSET -2.921100 9.558500 0.000000
      CHANNELS 3 Yrotation Xrotation Zrotation
      JOINT RightShoulder
      {
       OFFSET -13.519700 0.000000 0.000000
       CHANNELS 3 Yrotation Xrotation Zrotation
       JOINT RightElbow
       {
        OFFSET 0.000000 -29.696600 0.000000
        CHANNELS 3 Yrotation Xrotation Zrotation
        JOINT RightWrist
        {
         OFFSET 0.000000 -24.004700 0.000000
         CHANNELS 3 Yrotation Xrotation Zrotation
         End Site
         {
          OFFSET 0.000000 -17.728500 0.000000
         }
        }
       }
      }
     }
     JOINT LeftCollar
     {
      OFFSET 2.921100 9.558500 0.000000
      CHANNELS 3 Yrotation Xrotation Zrotation
      JOINT LeftShoulder
      {
       OFFSET 13.519700 0.000000 0.000000
       CHANNELS 3 Yrotation Xrotation Zrotation
       JOINT LeftElbow
       {
        OFFSET 0.000000 -29.696600 0.000000
        CHANNELS 3 Yrotation Xrotation Zrotation
        JOINT LeftWrist
        {
         OFFSET 0.000000 -24.004700 0.000000
         CHANNELS 3 Yrotation Xrotation Zrotation
         End Site
         {
          OFFSET 0.000000 -17.728500 0.000000
         }
        }
       }
      }
     }
    }
   }
  }
 }
 JOINT RightHip
 {
  OFFSET -7.771700 -0.012900 -0.001300
  CHANNELS 3 Yrotation Xrotation Zrotation
  JOINT RightKnee
  {
   OFFSET 0.000000 -40.869800 0.001200
   CHANNELS 3 Yrotation Xrotation Zrotation
   JOINT RightAnkle
   {
    OFFSET 0.000000 -39.717900 0.002100
    CHANNELS 3 Yrotation Xrotation Zrotation
    JOINT RightToe
    {
     OFFSET 0.000000 -4.965400 11.033500
     CHANNELS 3 Yrotation Xrotation Zrotation
     End Site
     {
      OFFSET 0.000000 -1.423100 5.872300
     }
    }
   }
  }
 }
 JOINT LeftHip
 {
  OFFSET 7.771700 -0.012900 -0.001300
  CHANNELS 3 Yrotation Xrotation Zrotation
  JOINT LeftKnee
  {
   OFFSET 0.000000 -40.869800 0.001200
   CHANNELS 3 Yrotation Xrotation Zrotation
   JOINT LeftAnkle
   {
    OFFSET 0.000000 -39.717900 0.002100
    CHANNELS 3 Yrotation Xrotation Zrotation
    JOINT LeftToe
    {
     OFFSET 0.000000 -4.965400 11.033500
     CHANNELS 3 Yrotation Xrotation Zrotation
     End Site
     {
      OFFSET 0.000000 -1.423100 5.872300
     }
    }
   }
  }
 }
}
MOTION
Frames: 5
Frame Time: 0.008333
-15.505342 58.281415 55.459613 176.152267 -30.571037 -1.925492 2.298122 20.223382 6.015330 0.129754 2.640957 0.581846 0.283812 4.299167 0.922918 1.570029 17.373282 3.984873 1.141451 10.305258 -6.787241 5.326526 -16.205937 -13.527851 2.516816 -1.993321 -3.521081 6.108411 -7.343508 -15.152424 -121.614502 -85.324952 161.353170 13.476615 -16.792276 -41.251973 -5.680078 -2.714793 -0.930390 0.130004 -2.161609 -3.691322 -113.262682 -81.795896 80.829811 -6.129599 -2.851790 18.771181 10.279687 -40.500273 -5.629015 -1.116366 68.377690 -0.808543 4.706308 6.651023 7.742809 -0.053986 0.132214 -0.022801 -10.310885 -46.717024 5.273267 25.506368 64.642303 21.100710 -9.634660 33.202876 4.389454 0.530397 -18.751210 -6.685946
-15.502382 58.286001 55.460998 176.154887 -30.599373 -1.935979 2.321576 20.241739 6.022704 0.191667 2.630585 0.549887 0.230105 4.310210 0.954676 1.582069 17.379149 3.980251 1.193004 10.307238 -6.663584 5.230595 -16.223334 -13.348247 2.497495 -1.993338 -3.493517 6.177647 -7.350790 -15.119799 -120.618706 -85.390150 160.315277 13.456511 -16.772254 -41.272753 -5.686710 -2.672921 -0.948489 0.096238 -2.294388 -3.673064 -112.796980 -81.859013 80.396568 -6.102799 -2.872617 18.842272 10.247594 -40.467363 -5.606932 -1.087328 68.364333 -0.780274 4.706511 6.660035 7.735783 -0.059407 0.124062 -0.025105 -10.323073 -46.686325 5.286397 25.513808 64.642663 21.102456 -9.622003 33.205747 4.403593 0.518144 -18.756829 -6.691492
-15.498811 58.290937 55.462171 176.160249 -30.625064 -1.948451 2.359694 20.254090 6.030882 0.186613 2.641392 0.547774 0.245406 4.307420 0.950968 1.575843 17.383481 3.987890 1.196338 10.316661 -6.578899 5.164003 -16.251763 -13.131976 2.531356 -1.982068 -3.490430 6.215796 -7.368288 -15.076865 -120.137951 -85.447536 159.756624 13.443784 -16.762785 -41.282278 -5.701142 -2.617095 -0.969621 0.067157 -2.420731 -3.651007 -112.374534 -81.900610 80.016965 -6.087935 -2.873893 18.886024 10.224133 -40.436907 -5.587164 -1.086403 68.351884 -0.775205 4.706539 6.672580 7.733367 -0.055961 0.116879 -0.029848 -10.352353 -46.655636 5.315067 25.528260 64.641272 21.100684 -9.623752 33.207863 4.401884 0.513349 -18.759702 -6.687937
-15.495046 58.295709 55.463775 176.156567 -30.644786 -1.954366 2.417454 20.270452 6.026115 0.153861 2.641752 0.570174 0.294030 4.329079 0.916101 1.608153 17.400696 3.969795 1.159101 10.291788 -6.427358 5.099606 -16.275590 -12.918302 2.583637 -1.995541 -3.464034 6.206901 -7.403824 -15.009964 -119.325224 -85.551514 158.911625 13.411086 -16.745705 -41.300680 -5.773982 -2.582265 -0.923989 0.054562 -2.529127 -3.625464 -112.043460 -81.922521 79.731005 -6.068733 -2.872589 18.923062 10.214929 -40.412543 -5.571325 -1.090173 68.338984 -0.775858 4.708054 6.683399 7.731891 -0.056037 0.112166 -0.031780 -10.381520 -46.625555 5.366214 25.521313 64.642119 21.056537 -9.652729 33.204152 4.393311 0.531376 -18.752853 -6.681693
-15.491319 58.300234 55.465644 176.159154 -30.660183 -1.959812 2.438075 20.288026 6.026300 0.147288 2.641406 0.573539 0.306625 4.340354 0.906917 1.625014 17.415165 3.953348 1.147900 10.289726 -6.319365 5.035837 -16.288475 -12.711038 2.605597 -2.010962 -3.449404 6.291597 -7.424172 -14.980712 -118.920671 -85.661825 158.480746 13.395745 -16.729150 -41.309292 -5.815302 -2.567886 -0.896477 0.088476 -2.509841 -3.661531 -112.145031 -81.881529 79.845265 -6.044144 -2.870111 18.951092 10.205096 -40.392405 -5.562115 -1.084972 68.328028 -0.767600 4.707499 6.693165 7.731168 -0.058435 0.106839 -0.033680 -10.392815 -46.605655 5.387557 25.521435 64.638213 21.041525 -9.661257 33.215889 4.391506 0.531079 -18.759520 -6.675881
